<svg width="100%" height="100%" viewBox="0 0 1732 1666" fill="none" xmlns="http://www.w3.org/2000/svg" class="h-full w-full" preserveAspectRatio="xMidYMid slice"><defs><style>
            .flowing-path {
              stroke: #9ca3af;
              stroke-width: 3;
              fill: none;
              animation: flow var(--duration, 4s) linear infinite;
            }
            
            .flowing-path:nth-child(2n) {
              animation-delay: -1s;
            }
            
            .flowing-path:nth-child(3n) {
              animation-delay: -2s;
            }
            
            .flowing-path:nth-child(4n) {
              animation-delay: -3s;
            }
            
            .flowing-path:nth-child(5n) {
              animation-delay: -0.5s;
            }
            
            .flowing-path:nth-child(6n) {
              animation-delay: -1.5s;
            }
            
            .flowing-path:nth-child(7n) {
              animation-delay: -2.5s;
            }

            .flowing-path-fast {
              --duration: 3s;
            }
            
            .flowing-path-medium {
              --duration: 5s;
            }
            
            .flowing-path-slow {
              --duration: 7s;
            }
            
            @keyframes flow {
              0% {
                stroke-dashoffset: 0;
                stroke: #9ca3af;
              }
              25% {
                stroke: #374151;
              }
              50% {
                stroke: #111827;
              }
              75% {
                stroke: #374151;
              }
              100% {
                stroke-dashoffset: -28;
                stroke: #9ca3af;
              }
            }
            
            /* Pulse effect for some paths */
            .pulse-path {
              stroke: #9ca3af;
              stroke-width: 3;
              fill: none;
              animation: pulse var(--pulse-duration, 6s) ease-in-out infinite;
            }
            
            @keyframes pulse {
              0%, 100% {
                stroke-opacity: 0.3;
                stroke-width: 3;
              }
              50% {
                stroke-opacity: 1;
                stroke-width: 4;
              }
            }
          </style></defs><path class="flowing-path flowing-path-fast" d="M1186.6 1152.83C1222.85 1168.02 1236.62 1205.24 1212.93 1226.49C1164.17 1270.22 963.456 1248.62 954.013 1218.98C944.709 1189.78 1110.94 1121.13 1186.6 1152.83Z"/><path class="flowing-path flowing-path-medium" d="M1096.76 1055.56C1013.94 1026.55 874.881 1233.16 932.281 1281.93C967.573 1311.93 1053.01 1308.18 1122.68 1298.32C1188.08 1289.07 1281.53 1251.24 1304.59 1188.41C1316.8 1155.05 1309.47 1107.53 1283.61 1090.89C1263.6 1078.01 1236.59 1083.8 1230.63 1081.66C1202.22 1093.45 1198.05 1098.03 1175.41 1100.8C1145.83 1104.41 1119.53 1063.54 1096.76 1055.56Z"/><path class="flowing-path flowing-path-slow" d="M1012.73 953.944C916.545 969.305 812.022 1271.08 916.36 1340.53C982.809 1384.76 1098.65 1365.23 1179.4 1341.85C1253.57 1320.37 1377.08 1248.69 1402.07 1145.97C1416.59 1086.28 1398.94 1002.31 1348.37 978.022C1308.06 958.667 1256.12 975.31 1246.97 976.591C1192.92 1005.68 1188.54 1020.48 1148.29 1030.44C1095 1043.62 1052.93 947.493 1012.73 953.944Z"/><path class="flowing-path flowing-path-fast" d="M934.791 853.001C828.593 881.318 755.254 1309.44 906.53 1399.8C1004.16 1458.11 1150.45 1423.13 1242.21 1386.05C1325.23 1352.51 1478.27 1246.96 1505.63 1104.19C1522.14 1018.09 1494.59 897.864 1419.22 865.825C1358.66 840.071 1281.32 866.501 1269.42 872.189C1186.22 911.978 1185.17 943.596 1127.24 960.756C1050.29 983.613 990.41 838.201 934.791 853.001Z"/><path class="flowing-path flowing-path-medium" d="M861.541 756.647C743.932 797.499 703.366 1351.96 901.387 1463.67C1030.34 1535.76 1207.01 1485.72 1309.71 1434.85C1401.65 1389.32 1584.03 1249.92 1613.92 1067.01C1632.29 954.577 1594.96 798.043 1494.79 758.201C1413.95 726.075 1311.82 763.757 1296.58 772.351C1189.33 832.812 1186.55 871.434 1110.97 895.669C1010.35 928.208 931.939 732.201 861.541 756.647Z"/><path class="pulse-path" d="M1573.65 651.859C1472.56 613.369 1345.71 662.252 1327.02 673.803C1196.01 754.804 1191.17 800.264 1097.95 831.802C973.646 873.856 876.242 626.755 791.643 661.514C661.694 714.909 654.401 1396.42 899.597 1528.75C1059.59 1615.1 1266.99 1549.58 1380.56 1484.87C1481.43 1427.4 1693.02 1254.14 1725.49 1031.06C1745.68 892.298 1698.64 699.443 1573.65 651.859Z" style="--pulse-duration: 8s;"/><path class="flowing-path flowing-path-fast" d="M479.752 581.637C519.572 581.303 567.326 512.232 531.614 500.698C510.988 494.027 456.38 504.577 434.929 523.353C404.72 549.774 452.351 581.874 479.752 581.637Z"/><path class="flowing-path flowing-path-medium" d="M587.969 510.371C584.072 501.101 565.825 496.985 549.176 485.696C515.403 462.787 510.558 451.902 486.571 438.086C477.215 432.688 464.63 425.595 452.342 428.843C433.525 433.82 428.829 455.361 404.948 493.298C373.983 542.594 362.258 555.339 371.104 581.462C373.167 587.536 375.835 607.207 390.747 619.206C411.399 635.796 435.605 622.98 465.867 633.961C502.212 647.128 520.23 670.564 536.002 660.207C547.113 652.912 547.526 632.934 555.846 598.148C562.183 571.648 566.168 554.259 573.874 540.074C583.116 523.186 592.305 520.676 587.969 510.371Z"/><path class="flowing-path flowing-path-slow" d="M648.836 529.69C648.16 513.258 622.357 505.306 601.09 481.562C557.479 432.855 577.683 398.051 542.725 362.466C527.892 347.359 504.616 332.727 481.288 335.562C448.182 339.591 437.062 373.798 386.095 443.151C319.462 533.825 291.078 551.582 297.301 599.903C298.573 609.752 299.811 647.567 325.851 670.327C360.581 700.681 402.209 673.066 456.581 695.879C517.334 721.335 540.039 775.757 560.524 764.495C574.751 756.674 569.301 725.179 580.237 663.753C587.978 620.092 592.761 594.575 608.235 573.676C627.763 547.316 649.564 547.536 648.836 529.69Z"/><path class="flowing-path flowing-path-fast" d="M709.764 548.8C712.397 525.249 678.984 513.408 653.066 477.208C599.704 402.685 645.712 344.436 598.94 286.626C578.92 261.891 544.586 239.762 510.295 242.07C462.769 245.266 445.207 291.875 367.234 392.793C264.721 524.652 220.574 547.869 223.471 618.135C224.041 631.837 223.778 687.698 260.93 721.264C309.746 765.355 368.884 722.888 447.26 757.604C532.483 795.348 559.796 880.729 585.055 868.599C602.389 860.207 591.287 817.231 604.636 729.164C613.852 668.343 619.408 634.821 642.613 607.084C672.524 571.341 706.947 574.167 709.764 548.8Z"/><path class="flowing-path flowing-path-medium" d="M770.833 567.856C776.74 537.213 735.813 521.439 705.183 472.811C642.183 372.429 714.091 290.962 655.287 210.743C630.15 176.422 584.669 146.788 539.434 148.526C477.452 150.914 453.729 210.084 348.548 342.391C210.481 515.664 150.395 544.279 149.86 636.322C149.755 653.878 148.017 727.734 196.236 772.149C259.201 829.924 335.734 772.632 438.167 819.285C547.877 869.266 579.798 985.685 609.727 972.659C630.177 963.723 613.413 909.231 629.176 794.532C639.892 716.542 646.185 675.058 677.123 640.448C717.444 595.365 764.478 600.808 770.833 567.856Z"/><path class="pulse-path" d="M832.016 586.904C822.124 627.457 762.495 619.381 711.774 673.803C673.095 715.295 666.065 764.723 653.848 859.891C635.706 1001.21 658.104 1067.23 634.539 1076.7C599.897 1090.63 563.377 943.165 429.163 880.958C302.725 822.358 208.638 894.598 131.631 823.025C72.2647 767.839 75.5648 675.989 76.3372 654.492C80.4271 540.698 156.355 506.658 329.985 291.972C462.383 128.276 492.241 56.5619 568.713 54.9731C624.884 53.8057 681.538 90.9618 711.774 134.85C782.576 237.55 684.628 342.277 757.413 468.404C792.687 529.524 841.222 549.177 832.016 586.904Z" style="--pulse-duration: 10s;"/><path class="flowing-path flowing-path-fast" d="M325.992 1239.62C336.384 1234.35 358.203 1244.5 360.134 1260.3C362.319 1278.24 337.63 1293.07 326.782 1288.46C313.95 1283 312.204 1246.59 325.992 1239.62Z"/><path class="flowing-path flowing-path-slow" d="M296.713 1334.9C279.001 1318.33 271.26 1287.94 262.404 1235.83C253.628 1184.17 255.005 1147.18 262.72 1144.49C266.924 1143.04 278.834 1154.38 289.051 1162.68C308.175 1178.18 340.912 1176.46 349.303 1178.14C380.022 1184.28 389.044 1195.69 401.885 1217.55C407.827 1227.64 421.685 1250.03 427.785 1276.36C437.088 1316.24 478.786 1328.53 473.705 1344.51C469.43 1357.85 428.118 1361.09 401.332 1361.47C362.942 1362.01 324.096 1360.48 296.713 1334.9Z"/><path class="flowing-path flowing-path-medium" d="M266.012 1379.43C236.899 1349.83 225.446 1300.16 207.804 1207.26C189.882 1113.92 189.996 1049.89 198.826 1047.51C205.452 1045.68 226.911 1068.76 245.149 1085.25C279.528 1116.47 341.07 1111.34 353.753 1113.34C411.592 1122.27 425.845 1143.68 448.261 1184.15C457.599 1201 483.219 1242.08 494.892 1290.6C512.858 1364.92 598.036 1384.38 590.988 1411.93C585.099 1434.88 506.109 1438.4 456.406 1436.51C386.227 1433.78 315.205 1429.46 266.012 1379.43Z"/><path class="flowing-path flowing-path-fast" d="M235.477 1423.67C194.938 1381.04 179.903 1312.06 153.38 1178.4C126.444 1043.35 125.188 952.443 135.106 950.179C144.19 948.072 175.181 982.832 201.388 1007.56C250.933 1054.58 341.36 1045.94 358.343 1048.2C443.284 1059.54 462.848 1091.25 494.778 1150.42C507.522 1174.02 544.884 1233.8 562.148 1304.47C588.75 1413.25 717.418 1439.86 708.421 1478.99C700.909 1511.54 584.222 1515.48 511.62 1511.17C409.67 1505.42 306.367 1498.21 235.477 1423.67Z"/><path class="flowing-path flowing-path-medium" d="M205.039 1467.88C153.046 1412.23 134.448 1323.93 99.0427 1149.5C63.058 972.773 60.4249 855.002 71.4661 852.816C83.0163 850.508 123.556 896.81 157.715 929.788C222.523 992.505 341.729 980.436 363.012 983.025C475.056 996.622 500.079 1038.72 541.382 1116.64C557.584 1146.98 606.637 1225.48 629.474 1318.32C664.739 1461.53 836.896 1495.31 825.925 1546.02C816.806 1588.15 662.423 1592.36 566.914 1585.81C433.235 1576.79 297.59 1566.95 205.039 1467.88Z"/><path class="pulse-path" d="M367.725 917.824C506.863 933.624 537.117 986.29 588.022 1082.85C607.594 1119.97 668.435 1217.14 696.854 1332.13C740.737 1509.81 956.409 1550.74 943.48 1613.02C932.738 1664.81 740.667 1669.2 622.251 1660.42C456.792 1648.13 288.831 1635.68 174.637 1512.08C111.19 1443.39 89.037 1335.79 44.7407 1120.59C-0.222584 902.165 -4.23338 757.56 7.87854 755.436C21.9213 752.978 71.9489 810.736 114.077 851.991C194.156 930.394 342.132 914.919 367.725 917.824Z" style="--pulse-duration: 12s;"/><path class="flowing-path flowing-path-slow" d="M1499.05 495.615C1483.25 556.182 1369.86 527.733 1234.87 664.148C1186.5 713.031 1154.07 764.161 1090.05 772.114C1083.59 772.913 1019.46 779.926 974.199 738.758C917.255 686.97 952.011 615.124 885.554 514.926C861.075 478.016 857.003 488.733 839.037 459.627C762.363 335.378 879.305 209.242 811.829 83.0619C780.768 24.9796 734.594 11.6462 738.982 4.06228C757.922 -28.4768 1541.74 332.411 1499.05 495.615Z"/><path class="flowing-path flowing-path-fast" d="M1072.5 689.313C1068.62 688.787 1026.33 691.947 997.326 662.84C960.648 626.087 986.794 575.484 944.771 507.167C929.306 482.01 927.156 488.83 916.15 468.931C869.194 384.015 953.468 298.59 912.2 215.465C893.102 176.984 862.954 168.162 867.439 164.405C887.722 147.271 1405.08 400.394 1364.45 510.537C1349.21 551.845 1266.03 537.187 1170.86 626.158C1136.25 658.486 1112.82 694.782 1072.5 689.313Z"/><path class="flowing-path flowing-path-medium" d="M1054.95 606.504C1053.84 603.722 1033.16 603.783 1020.45 586.921C1003.95 565.047 1021.52 535.905 1003.99 499.416C997.554 486.021 997.291 488.883 993.253 478.235C975.919 432.442 1027.7 387.991 1012.56 347.86C1005.48 328.97 992.314 325.749 995.825 324.739C1021.49 328.382 1267.9 468.624 1229.89 525.46C1215.05 547.667 1161.93 546.605 1106.89 588.168C1085.98 603.968 1072.29 615.537 1054.95 606.504Z"/><path class="flowing-path flowing-path-fast" d="M1037.39 523.704C1051.01 483.897 1104.64 470.362 1124.28 485.082C1153.24 506.816 1128.54 535.115 1095.32 540.382C1070.49 544.288 1021.8 569.26 1037.39 523.704Z"/></svg>